<svg width="1080" height="1080" viewBox="0 0 1080 1080" fill="none" xmlns="http://www.w3.org/2000/svg">
<rect width="1080" height="1080" fill="white"/>
<path d="M433.24 562.064V383.802H583.278V418.393H475.471V457.441H579.458V488.001H475.471V527.261H583.278V562.064H433.24Z" fill="#3B1E1A"/>
<path d="M238.016 562.064V383.802H287.039L369.804 503.705H373.836V383.802H415.218V562.064H367.045L283.219 442.162H279.399V562.064H238.016Z" fill="#3B1E1A"/>
<path d="M799.727 562.064L744.466 482.101L673.67 383.802H726.385L780.373 462.747L852.442 562.064H799.727ZM672.397 562.064L740.391 465.039L775.28 485.157L722.565 562.064H672.397ZM784.448 479.3L749.814 459.945L799.727 383.802H849.895L784.448 479.3Z" fill="#3B1E1A"/>
<path d="M689.735 505.785L673.061 482.101L602.265 383.802H654.98L708.968 462.747L716.819 473.79L689.735 505.785ZM600.992 562.064L668.986 465.039L703.875 485.157L651.16 562.064H600.992ZM716.819 473.79L678.409 459.945L692.42 438.549L716.819 473.79Z" fill="#C6AB8D"/>
<path d="M773.358 613.734C768.051 618.631 762.913 623.391 757.943 628.012C753.057 632.565 748.592 636.738 744.548 640.531C740.505 644.256 737.009 647.464 734.06 650.154C731.112 652.775 728.964 654.637 727.616 655.741C725.679 657.534 723.825 659.293 722.056 661.018C720.371 662.673 718.897 664.294 717.634 665.881C716.37 667.467 715.359 668.984 714.601 670.433C713.843 671.813 713.464 673.054 713.464 674.158C713.464 676.02 714.264 677.365 715.865 678.193C717.549 678.952 719.613 679.331 722.056 679.331C724.331 679.331 726.984 679.124 730.017 678.71C733.134 678.296 736.756 677.572 740.884 676.537C745.096 675.434 749.94 673.985 755.415 672.192C760.975 670.399 767.377 668.088 774.622 665.26L775.886 667.743C768.304 670.709 761.481 673.227 755.415 675.296C749.35 677.365 743.832 679.09 738.862 680.469C733.976 681.78 729.512 682.745 725.468 683.366C721.509 683.987 717.844 684.297 714.475 684.297C712.369 684.297 710.221 684.09 708.03 683.677C705.84 683.194 703.818 682.504 701.965 681.607C700.196 680.642 698.722 679.503 697.542 678.193C696.363 676.882 695.773 675.33 695.773 673.537C695.773 672.709 695.9 671.847 696.152 670.95C696.405 670.054 696.868 669.122 697.542 668.157C690.55 673.744 683.853 677.848 677.451 680.469C671.049 683.021 665.11 684.297 659.634 684.297C655.422 684.297 652.011 683.849 649.399 682.952C646.872 681.987 644.85 680.78 643.334 679.331C641.902 677.814 640.933 676.124 640.428 674.261C639.922 672.399 639.669 670.502 639.669 668.571C639.669 665.398 640.596 662.052 642.449 658.534C644.303 654.948 646.788 651.43 649.905 647.981C653.106 644.532 656.77 641.256 660.898 638.152C665.11 634.979 669.533 632.22 674.166 629.875C678.799 627.46 683.474 625.563 688.192 624.184C692.909 622.735 697.458 622.011 701.839 622.011C704.619 622.011 707.23 622.218 709.673 622.632C712.116 623.046 714.222 623.701 715.991 624.598C717.76 625.426 719.15 626.564 720.161 628.012C721.256 629.392 721.804 631.047 721.804 632.979C721.804 635.186 721.045 637.738 719.529 640.635L715.233 642.29C715.738 640.635 715.991 639.048 715.991 637.531C715.991 636.427 715.822 635.358 715.486 634.324C715.233 633.22 714.769 632.254 714.096 631.427C713.422 630.599 712.495 629.944 711.316 629.461C710.221 628.909 708.831 628.633 707.146 628.633C703.523 628.633 699.817 629.357 696.026 630.806C692.235 632.185 688.529 634.048 684.906 636.393C681.368 638.669 677.999 641.256 674.798 644.153C671.681 646.981 668.943 649.878 666.584 652.844C664.225 655.81 662.33 658.672 660.898 661.432C659.55 664.191 658.876 666.57 658.876 668.571C658.876 671.399 659.676 673.261 661.277 674.158C662.878 674.985 665.447 675.399 668.985 675.399C673.197 675.399 677.535 674.33 682 672.192C686.465 669.985 691.309 667.053 696.532 663.397C699.311 661.328 702.428 658.81 705.882 655.844C709.336 652.878 712.706 649.878 715.991 646.843L810.256 560.553C813.457 557.656 816.447 555.241 819.227 553.31C822.091 551.379 824.239 550.413 825.672 550.413C826.345 550.413 827.272 550.517 828.451 550.723C829.631 550.93 830.768 551.241 831.863 551.655C833.043 552 834.011 552.482 834.769 553.103C835.612 553.655 836.033 554.276 836.033 554.966C836.033 555.724 835.401 556.69 834.138 557.863C832.958 559.035 831.484 560.415 829.715 562.001L773.358 613.734Z" fill="#3B1E1A"/>
<path d="M683.713 586.177C678.627 590.686 674.05 594.73 669.981 598.308C665.912 601.887 661.886 605.358 657.902 608.721C653.918 612.014 649.765 615.413 645.442 618.92C641.119 622.355 636.16 626.22 630.566 630.514C624.971 634.737 618.487 639.567 611.112 645.007C603.823 650.446 595.219 656.815 585.302 664.115C584.37 666.048 583.649 667.837 583.14 669.483C582.717 671.058 582.505 672.489 582.505 673.777C582.505 674.779 582.844 675.638 583.522 676.354C584.2 676.998 585.048 677.535 586.065 677.964C587.167 678.393 588.353 678.715 589.625 678.93C590.981 679.073 592.253 679.145 593.439 679.145C595.728 679.145 598.398 678.93 601.449 678.501C604.586 678.071 608.23 677.32 612.384 676.246C616.622 675.101 621.496 673.598 627.006 671.738C632.6 669.877 639.042 667.479 646.332 664.545L647.603 667.121C639.974 670.199 633.109 672.811 627.006 674.958C620.903 677.105 615.351 678.894 610.35 680.326C605.433 681.686 600.941 682.688 596.872 683.332C592.888 683.976 589.201 684.298 585.81 684.298C582.335 684.298 579.453 684.012 577.165 683.439C574.961 682.866 573.181 682.115 571.824 681.185C570.553 680.183 569.663 679.002 569.154 677.642C568.561 676.282 568.264 674.779 568.264 673.133C568.264 669.769 569.493 665.654 571.952 660.788C574.495 655.921 577.843 650.625 581.996 644.899C586.234 639.174 591.108 633.162 596.618 626.864C602.127 620.494 607.891 614.161 613.91 607.863C620.013 601.565 626.158 595.41 632.346 589.398C638.618 583.386 644.552 577.804 650.146 572.651C651.841 571.076 654.088 569.144 656.885 566.854C659.682 564.564 662.776 562.166 666.166 559.661C669.557 557.085 673.117 554.544 676.847 552.039C680.661 549.534 684.391 547.28 688.036 545.276C691.765 543.272 695.283 541.662 698.589 540.445C701.979 539.157 704.988 538.513 707.616 538.513C711.091 538.513 713.507 539.228 714.863 540.66C716.304 542.091 717.025 543.952 717.025 546.242C717.025 548.031 716.347 550.107 714.99 552.469C713.634 554.83 711.897 557.335 709.777 559.983C707.658 562.631 705.285 565.315 702.657 568.035C700.114 570.754 697.614 573.295 695.156 575.657C692.698 578.019 690.409 580.13 688.29 581.991C686.255 583.851 684.73 585.247 683.713 586.177ZM671.761 572.221C667.268 576.015 662.522 580.13 657.521 584.567C652.52 589.004 647.476 593.62 642.39 598.416C637.389 603.139 632.388 607.97 627.387 612.908C622.471 617.846 617.766 622.749 613.274 627.616C608.866 632.411 604.755 637.098 600.941 641.679C597.126 646.188 593.863 650.446 591.151 654.454C595.813 651.09 601.026 647.261 606.79 642.967C612.553 638.601 618.572 634.021 624.844 629.226C631.201 624.359 637.601 619.349 644.043 614.196C650.57 609.043 656.843 603.926 662.861 598.845C668.964 593.692 674.685 588.718 680.025 583.923C685.365 579.056 690.027 574.547 694.011 570.396C697.995 566.246 701.132 562.524 703.42 559.232C705.709 555.94 706.853 553.256 706.853 551.18C706.853 550.178 706.26 549.677 705.073 549.677C703.378 549.677 701.259 550.393 698.716 551.824C696.173 553.184 693.376 554.973 690.324 557.192C687.357 559.339 684.264 561.772 681.043 564.492C677.822 567.14 674.728 569.717 671.761 572.221Z" fill="#3B1E1A"/>
<path d="M506.333 595.042C508.111 595.042 509.805 595.423 511.414 596.185C513.108 596.947 514.463 598.09 515.479 599.615C516.749 601.139 517.554 603.129 517.893 605.585C518.316 607.956 518.528 610.539 518.528 613.334L518.274 619.685C519.459 620.108 520.941 620.489 522.72 620.828C524.583 621.082 526.488 621.209 528.436 621.209C532.162 621.209 536.523 620.574 541.52 619.304C546.516 618.034 552.402 615.535 559.177 611.809C559.346 611.979 559.515 612.233 559.685 612.571C559.854 612.91 560.066 613.291 560.32 613.715C560.574 614.138 560.87 614.604 561.209 615.112C559.685 615.874 558.415 616.636 557.398 617.398C556.382 618.161 555.366 619.007 554.35 619.939C553.249 620.871 551.809 622.268 550.031 624.131C548.337 625.909 546.559 627.815 544.695 629.847C542.832 631.88 541.012 633.954 539.233 636.072C537.54 638.104 536.142 639.84 535.041 641.28C532.331 644.752 529.706 648.266 527.166 651.823C524.71 655.38 522.508 658.725 520.56 661.858C518.697 664.992 517.215 667.829 516.114 670.369C515.013 672.825 514.463 674.73 514.463 676.085C514.463 678.287 515.14 679.685 516.495 680.277C517.935 680.87 519.883 681.167 522.339 681.167C524.625 681.167 527.42 680.997 530.722 680.658C534.11 680.235 538.005 679.43 542.409 678.245C546.897 677.059 551.936 675.408 557.525 673.291C563.199 671.089 569.508 668.21 576.453 664.653L577.723 667.702C571.202 671.597 564.724 674.857 558.287 677.483C551.936 680.108 545.796 682.225 539.868 683.834C534.025 685.443 528.521 686.586 523.355 687.264C518.189 687.941 513.616 688.28 509.636 688.28C505.063 688.28 501.718 687.179 499.601 684.977C497.483 682.691 496.425 679.642 496.425 675.831C496.425 674.307 496.848 672.571 497.695 670.623C498.542 668.675 499.855 666.389 501.633 663.764C503.411 661.054 505.698 657.963 508.492 654.491C511.372 651.019 514.802 646.954 518.782 642.296C519.036 642.042 519.586 641.449 520.433 640.518C521.28 639.501 522.254 638.4 523.355 637.215C524.54 635.945 525.768 634.632 527.039 633.277C528.394 631.837 529.622 630.525 530.722 629.339C531.823 628.153 532.755 627.137 533.517 626.29C534.364 625.444 534.872 624.935 535.041 624.766C533.856 625.02 532.543 625.274 531.103 625.528C529.664 625.698 528.182 625.782 526.657 625.782C525.218 625.782 523.651 625.782 521.957 625.782C520.264 625.698 518.697 625.528 517.257 625.274C516.749 627.815 516.029 630.271 515.098 632.642C514.251 635.013 513.066 637.342 511.541 639.628C510.017 641.915 508.069 644.159 505.698 646.361C503.411 648.563 500.574 650.764 497.187 652.966L493.884 650.934C497.356 648.986 500.193 646.827 502.395 644.455C504.597 642.084 506.333 639.713 507.603 637.342C508.874 634.886 509.72 632.472 510.144 630.101C510.652 627.645 510.991 625.359 511.16 623.242C508.958 622.564 506.841 621.675 504.809 620.574C502.861 619.473 501.125 618.203 499.601 616.763C498.161 615.324 497.018 613.672 496.171 611.809C495.324 609.946 494.9 607.914 494.9 605.712C494.9 602.663 495.959 600.123 498.076 598.09C500.278 596.058 503.03 595.042 506.333 595.042Z" fill="#3B1E1A"/>
<path d="M482.323 657.667C478.276 657.667 474.651 656.991 471.447 655.638C468.328 654.201 465.63 652.257 463.354 649.805C458.801 656.991 454.29 662.824 449.822 667.305C445.354 671.786 441.012 675.294 436.796 677.83C432.665 680.367 428.661 682.1 424.782 683.03C420.988 683.875 417.405 684.298 414.033 684.298C409.986 684.298 406.445 683.833 403.41 682.903C400.375 681.888 397.846 680.578 395.822 678.972C393.799 677.281 392.281 675.336 391.27 673.138C390.258 670.856 389.752 668.404 389.752 665.783C389.752 660.457 390.806 655.3 392.914 650.312C395.021 645.24 397.846 640.548 401.387 636.236C404.928 631.84 408.974 627.866 413.527 624.316C418.164 620.68 422.928 617.595 427.817 615.058C432.707 612.438 437.597 610.451 442.487 609.098C447.377 607.661 451.888 606.942 456.019 606.942C458.211 606.942 460.403 607.111 462.595 607.45C464.787 607.788 466.768 608.464 468.538 609.479C470.309 610.493 471.742 611.888 472.838 613.663C473.934 615.439 474.482 617.764 474.482 620.638C474.482 622.583 474.271 624.612 473.85 626.725C473.513 628.754 473.091 630.741 472.585 632.685C472.079 634.63 471.489 636.49 470.815 638.265C470.225 640.04 469.677 641.604 469.171 642.957C469.845 646.254 471.658 648.79 474.609 650.566C477.644 652.257 480.89 653.102 484.346 653.102C487.129 653.102 489.911 652.552 492.693 651.453C495.559 650.354 498.089 648.79 500.281 646.761L502.81 648.79C500.618 651.496 497.667 653.652 493.958 655.258C490.248 656.864 486.37 657.667 482.323 657.667ZM419.344 676.689C422.127 676.689 425.288 676.097 428.829 674.914C432.37 673.73 435.953 671.87 439.578 669.334C443.288 666.798 446.913 663.543 450.454 659.569C453.995 655.596 457.199 650.819 460.065 645.24C457.199 640.505 455.766 635.517 455.766 630.276C455.766 627.57 456.356 625.119 457.536 622.921C458.801 620.638 460.656 618.355 463.101 616.073C462.595 615.819 461.92 615.65 461.077 615.566C460.318 615.397 459.222 615.312 457.789 615.312C454.838 615.312 451.255 616.326 447.04 618.355C442.909 620.384 438.651 623.132 434.267 626.598C429.967 629.98 425.878 633.953 422 638.519C418.122 643.084 415.045 647.86 412.768 652.848C411.757 654.877 410.787 657.245 409.86 659.95C408.932 662.571 408.469 665.107 408.469 667.559C408.469 670.095 409.227 672.251 410.745 674.026C412.262 675.801 415.129 676.689 419.344 676.689Z" fill="#3B1E1A"/>
<path d="M385.656 652.761C380.792 652.761 376.535 651.57 372.887 649.19C369.319 646.81 366.36 643.736 364.009 639.967C362.063 642.546 360.036 645.025 357.928 647.405C355.901 649.686 353.915 651.868 351.969 653.951C350.023 656.033 348.159 657.918 346.375 659.603C344.591 661.289 343.01 662.777 341.632 664.066C340.497 665.157 338.511 666.843 335.673 669.124C332.916 671.306 329.673 673.537 325.944 675.818C322.295 678 318.363 679.984 314.147 681.769C310.012 683.455 305.958 684.298 301.986 684.298C296.716 684.298 293.027 683.306 290.919 681.322C288.892 679.24 287.878 676.562 287.878 673.289C287.878 672.199 287.96 671.108 288.122 670.017C288.365 668.827 288.689 667.637 289.095 666.446C287.311 667.934 285 669.719 282.163 671.802C279.406 673.785 276.366 675.719 273.042 677.603C269.717 679.488 266.231 681.075 262.583 682.364C259.015 683.653 255.529 684.298 252.124 684.298C246.854 684.298 243.165 683.306 241.057 681.322C239.03 679.24 238.017 676.562 238.017 673.289C238.017 670.81 238.584 668.132 239.719 665.256C240.854 662.281 242.314 659.306 244.097 656.331C245.881 653.256 247.827 650.182 249.935 647.108C252.043 644.033 254.07 641.058 256.016 638.182C257.475 636 259.218 633.422 261.245 630.446C263.353 627.471 265.542 624.397 267.812 621.223C270.163 617.951 272.515 614.777 274.866 611.703C277.298 608.628 279.568 605.851 281.676 603.372C283.865 600.893 285.811 598.909 287.514 597.422C289.216 595.835 290.554 595.042 291.527 595.042C292.176 595.042 293.067 595.19 294.202 595.488C295.337 595.785 296.432 596.232 297.486 596.827C298.621 597.322 299.553 598.017 300.283 598.909C301.094 599.703 301.499 600.595 301.499 601.587C301.499 602.678 300.891 604.066 299.675 605.752C298.54 607.438 297.121 609.422 295.419 611.703L275.231 639.67C274.663 640.463 273.731 641.703 272.433 643.389C271.217 645.075 269.839 647.058 268.299 649.339C266.758 651.521 265.137 653.851 263.434 656.331C261.812 658.711 260.313 660.992 258.934 663.174C257.637 665.356 256.543 667.289 255.651 668.975C254.759 670.661 254.313 671.802 254.313 672.397C254.313 673.19 254.556 673.835 255.043 674.331C255.61 674.827 256.502 675.075 257.718 675.075C260.231 675.075 262.866 674.628 265.623 673.736C268.38 672.843 271.177 671.653 274.014 670.165C276.933 668.678 279.811 666.942 282.649 664.959C285.568 662.876 288.365 660.694 291.04 658.413C291.77 657.818 292.865 656.529 294.324 654.546C295.864 652.562 297.445 650.38 299.067 648L305.877 638.182C307.418 636 309.201 633.422 311.228 630.446C313.255 627.471 315.404 624.397 317.674 621.223C320.025 617.951 322.376 614.777 324.728 611.703C327.16 608.628 329.43 605.851 331.538 603.372C333.727 600.893 335.673 598.909 337.375 597.422C339.078 595.835 340.416 595.042 341.389 595.042C342.037 595.042 342.929 595.19 344.064 595.488C345.199 595.785 346.294 596.232 347.348 596.827C348.483 597.322 349.415 598.017 350.145 598.909C350.956 599.703 351.361 600.595 351.361 601.587C351.361 602.678 350.753 604.066 349.537 605.752C348.402 607.438 346.983 609.422 345.28 611.703L325.092 639.67C324.525 640.463 323.593 641.703 322.295 643.389C321.079 645.075 319.701 647.058 318.16 649.339C316.62 651.521 314.998 653.851 313.296 656.331C311.674 658.711 310.174 660.992 308.796 663.174C307.499 665.356 306.404 667.289 305.513 668.975C304.621 670.661 304.175 671.802 304.175 672.397C304.175 673.19 304.418 673.835 304.904 674.331C305.472 674.827 306.364 675.075 307.58 675.075C310.093 675.075 312.728 674.628 315.485 673.736C318.241 672.843 321.039 671.653 323.876 670.165C326.795 668.678 329.673 666.942 332.511 664.959C335.43 662.876 338.227 660.694 340.902 658.413C341.308 658.017 342.159 657.223 343.456 656.033C344.834 654.843 346.456 653.256 348.321 651.273C350.186 649.19 352.253 646.761 354.523 643.984C356.874 641.207 359.226 638.083 361.577 634.612C359.793 629.951 358.901 625.289 358.901 620.628C358.901 617.455 359.388 614.38 360.361 611.405C361.333 608.331 362.671 605.653 364.374 603.372C366.076 600.992 368.063 599.108 370.333 597.719C372.603 596.331 375.035 595.637 377.63 595.637C379.089 595.637 380.103 596.281 380.67 597.57C381.238 598.86 381.521 600.397 381.521 602.182V603.67C381.278 607.835 380.103 612.248 377.995 616.909C375.968 621.471 373.495 626.083 370.576 630.744C370.9 634.215 371.63 637.042 372.765 639.223C373.9 641.306 375.238 642.992 376.779 644.281C378.319 645.471 379.94 646.314 381.643 646.81C383.427 647.207 385.089 647.405 386.629 647.405C389.467 647.405 392.264 646.761 395.021 645.471C397.858 644.083 400.25 642.248 402.196 639.967L404.628 642.347C403.98 643.438 403.047 644.579 401.831 645.769C400.696 646.959 399.277 648.099 397.575 649.19C395.953 650.182 394.129 651.025 392.102 651.719C390.075 652.413 387.926 652.761 385.656 652.761Z" fill="#3B1E1A"/>
</svg>
